 <svg
        width="57"
        height="57"
        viewBox="0 0 57 57"
        fill="none"
        xmlns="http://www.w3.org/2000/svg"
      >
        <path
          d="M56.4061 27.959H28.5C28.5 27.959 28.406 37.402 28.5 41.7533C28.594 46.1045 29.7215 48.7893 32.2584 51.7518C34.7953 54.7143 39.3994 55.8253 42.7819 56.0104C46.1644 56.1956 56.4061 56.0104 56.4061 56.0104V27.959Z"
          fill="white"
        />
        <path
          d="M28.406 55.825H0.5V39.9014C0.5 39.9014 0.875839 35.0873 4.72819 32.0322C8.58054 28.9771 10.5514 27.9663 14.7819 28.0513C18.809 28.1322 20.7953 28.9771 24.2718 32.0322C27.7483 35.0873 28.406 40.4569 28.406 40.4569V55.825Z"
          fill="white"
        />
        <path
          d="M0.5 27.9589V0H15.4396C15.4396 0 20.7953 0 24.9295 4.62895C29.0638 9.2579 28.406 15.3681 28.406 15.3681V27.9589H0.5Z"
          fill="white"
        />
        <path
          d="M56.5 0H28.5V15.183C28.5 15.183 29.0638 20.0896 31.7886 23.1447C34.5134 26.1999 37.6558 27.8353 42.2181 27.8663C46.8466 27.8977 50.4708 26.2285 53.4933 22.7744C55.7365 20.2109 56.5 15.183 56.5 15.183V0Z"
          fill="white"
        />
      </svg>