<svg width="137" height="71" viewBox="0 0 137 71" fill="none" xmlns="http://www.w3.org/2000/svg">
<rect x="34" y="17" width="85" height="46" rx="12" fill="#A31BF1"/>
<path d="M68.8 33.06L64.26 41.74V47H62.44V41.74L57.88 33.06H59.9L63.34 40.12L66.78 33.06H68.8ZM75.4997 47.18C74.473 47.18 73.5397 46.9467 72.6997 46.48C71.873 46.0133 71.2197 45.3533 70.7397 44.5C70.273 43.6333 70.0397 42.6333 70.0397 41.5C70.0397 40.38 70.2797 39.3933 70.7597 38.54C71.253 37.6733 71.9197 37.0133 72.7597 36.56C73.5997 36.0933 74.5397 35.86 75.5797 35.86C76.6197 35.86 77.5597 36.0933 78.3997 36.56C79.2397 37.0133 79.8997 37.6667 80.3797 38.52C80.873 39.3733 81.1197 40.3667 81.1197 41.5C81.1197 42.6333 80.8664 43.6333 80.3597 44.5C79.8664 45.3533 79.193 46.0133 78.3397 46.48C77.4864 46.9467 76.5397 47.18 75.4997 47.18ZM75.4997 45.58C76.153 45.58 76.7664 45.4267 77.3397 45.12C77.913 44.8133 78.373 44.3533 78.7197 43.74C79.0797 43.1267 79.2597 42.38 79.2597 41.5C79.2597 40.62 79.0864 39.8733 78.7397 39.26C78.393 38.6467 77.9397 38.1933 77.3797 37.9C76.8197 37.5933 76.213 37.44 75.5597 37.44C74.893 37.44 74.2797 37.5933 73.7197 37.9C73.173 38.1933 72.733 38.6467 72.3997 39.26C72.0664 39.8733 71.8997 40.62 71.8997 41.5C71.8997 42.3933 72.0597 43.1467 72.3797 43.76C72.713 44.3733 73.153 44.8333 73.6997 45.14C74.2464 45.4333 74.8464 45.58 75.4997 45.58ZM93.2327 36.04V47H91.4127V45.38C91.066 45.94 90.5793 46.38 89.9527 46.7C89.3393 47.0067 88.6593 47.16 87.9127 47.16C87.0593 47.16 86.2927 46.9867 85.6127 46.64C84.9327 46.28 84.3927 45.7467 83.9927 45.04C83.606 44.3333 83.4127 43.4733 83.4127 42.46V36.04H85.2127V42.22C85.2127 43.3 85.486 44.1333 86.0327 44.72C86.5793 45.2933 87.326 45.58 88.2727 45.58C89.246 45.58 90.0127 45.28 90.5727 44.68C91.1327 44.08 91.4127 43.2067 91.4127 42.06V36.04H93.2327Z" fill="white"/>
<path d="M129.972 7.38363L124.592 27.46L123.571 13.733L109.895 12.7631L129.972 7.38363Z" fill="#A31BF1"/>
</svg>
